<svg xmlns="http://www.w3.org/2000/svg" xmlns:xlink="http://www.w3.org/1999/xlink" width="660" zoomAndPan="magnify" viewBox="0 0 495 30.000001" height="40" preserveAspectRatio="xMidYMid meet" version="1.0"><defs><clipPath id="937002f82d"><path d="M 243.144531 10.160156 L 251.855469 10.160156 L 251.855469 18.871094 L 243.144531 18.871094 Z M 243.144531 10.160156 " clip-rule="nonzero"/></clipPath><clipPath id="c90813c046"><path d="M 244.597656 10.160156 L 250.402344 10.160156 C 251.203125 10.160156 251.855469 10.8125 251.855469 11.613281 L 251.855469 17.417969 C 251.855469 18.222656 251.203125 18.871094 250.402344 18.871094 L 244.597656 18.871094 C 243.796875 18.871094 243.144531 18.222656 243.144531 17.417969 L 243.144531 11.613281 C 243.144531 10.8125 243.796875 10.160156 244.597656 10.160156 Z M 244.597656 10.160156 " clip-rule="nonzero"/></clipPath><clipPath id="6220aca786"><path d="M 7.984375 13 L 214 13 L 214 16 L 7.984375 16 Z M 7.984375 13 " clip-rule="nonzero"/></clipPath><clipPath id="a286f57869"><path d="M 281 13 L 487.015625 13 L 487.015625 16 L 281 16 Z M 281 13 " clip-rule="nonzero"/></clipPath><clipPath id="4a3ccbf5f7"><path d="M 217 0 L 278 0 L 278 29.03125 L 217 29.03125 Z M 217 0 " clip-rule="nonzero"/></clipPath></defs><g clip-path="url(#937002f82d)"><g clip-path="url(#c90813c046)"><path fill="#868071" d="M 243.144531 10.160156 L 251.855469 10.160156 L 251.855469 18.871094 L 243.144531 18.871094 Z M 243.144531 10.160156 " fill-opacity="1" fill-rule="nonzero"/></g></g><g clip-path="url(#6220aca786)"><path fill="#f4ecdc" d="M 7.984375 14.699219 L 213.636719 13.554688 L 213.636719 15.832031 Z M 7.984375 14.699219 " fill-opacity="1" fill-rule="nonzero"/></g><g clip-path="url(#a286f57869)"><path fill="#f4ecdc" d="M 487.035156 14.699219 L 281.371094 13.554688 L 281.371094 15.832031 Z M 487.035156 14.699219 " fill-opacity="1" fill-rule="nonzero"/></g><g clip-path="url(#4a3ccbf5f7)"><path fill="#f4ecdc" d="M 269.742188 7.027344 C 269.742188 11.246094 266.328125 14.667969 262.109375 14.691406 C 254.03125 14.667969 247.480469 8.121094 247.480469 0.0429688 C 247.480469 8.121094 240.949219 14.660156 232.882812 14.691406 C 228.671875 14.660156 225.269531 11.238281 225.269531 7.027344 C 225.269531 11.257812 221.835938 14.691406 217.605469 14.691406 C 221.835938 14.691406 225.269531 18.121094 225.269531 22.351562 C 225.269531 18.140625 228.671875 14.71875 232.882812 14.691406 C 240.949219 14.71875 247.480469 21.269531 247.480469 29.335938 C 247.480469 21.25 254.03125 14.699219 262.109375 14.691406 C 266.328125 14.710938 269.742188 18.132812 269.742188 22.351562 C 269.742188 18.121094 273.171875 14.691406 277.402344 14.691406 C 273.171875 14.691406 269.742188 11.257812 269.742188 7.027344 Z M 269.742188 7.027344 " fill-opacity="1" fill-rule="nonzero"/></g></svg>