<svg xmlns="http://www.w3.org/2000/svg" xmlns:xlink="http://www.w3.org/1999/xlink" width="177" zoomAndPan="magnify" viewBox="0 0 132.75 88.499997" height="118" preserveAspectRatio="xMidYMid meet" version="1.0"><defs><filter x="0%" y="0%" width="100%" height="100%" id="369f5b9d1e"><feColorMatrix values="0 0 0 0 1 0 0 0 0 1 0 0 0 0 1 0 0 0 1 0" color-interpolation-filters="sRGB"/></filter><clipPath id="04f6dae5be"><path d="M 0.25 0 L 132 0 L 132 87 L 0.25 87 Z M 0.25 0 " clip-rule="nonzero"/></clipPath><mask id="42af3b322c"><g filter="url(#369f5b9d1e)"><rect x="-13.275" width="159.3" fill="#000000" y="-8.85" height="106.199996" fill-opacity="0.26"/></g></mask><clipPath id="4ec7d31b42"><path d="M 0.25 0 L 131 0 L 131 86 L 0.25 86 Z M 0.25 0 " clip-rule="nonzero"/></clipPath><clipPath id="bca3502572"><rect x="0" width="132" y="0" height="87"/></clipPath><mask id="3ce03ee821"><g filter="url(#369f5b9d1e)"><rect x="-13.275" width="159.3" fill="#000000" y="-8.85" height="106.199996" fill-opacity="0.93"/></g></mask><clipPath id="eb89d28960"><path d="M 1 0 L 131.746094 0 L 131.746094 86 L 1 86 Z M 1 0 " clip-rule="nonzero"/></clipPath><clipPath id="4370eb646b"><rect x="0" width="132" y="0" height="87"/></clipPath></defs><g clip-path="url(#04f6dae5be)"><g mask="url(#42af3b322c)"><g><g clip-path="url(#bca3502572)"><g clip-path="url(#4ec7d31b42)"><path fill="#eab90e" d="M 130.363281 43.570312 C 126.851562 25.65625 108.886719 15.105469 102.980469 11.640625 C 100.757812 10.332031 97.359375 8.515625 93.046875 6.730469 C 93.015625 6.710938 92.980469 6.707031 92.949219 6.691406 C 89.140625 5.121094 84.628906 3.582031 79.574219 2.445312 C 79.527344 2.429688 79.480469 2.425781 79.429688 2.414062 C 72.0625 0.773438 63.566406 -0.0078125 54.464844 1.21875 C 54.15625 1.261719 51.574219 1.625 48.164062 2.492188 C 48.140625 2.496094 48.117188 2.503906 48.09375 2.511719 C 41.183594 4.277344 30.945312 8.109375 29.304688 15.542969 C 28.824219 17.714844 29.042969 20 29.976562 22.527344 C 30.277344 23.339844 30.644531 24.148438 31.066406 24.949219 C 30.199219 25.070312 29.328125 25.210938 28.449219 25.367188 C 28.105469 25.429688 25.199219 25.96875 21.386719 27.117188 C 21.367188 27.121094 21.347656 27.132812 21.324219 27.136719 C 13.628906 29.464844 2.285156 34.277344 0.808594 42.695312 C 0.378906 45.152344 0.738281 47.699219 1.90625 50.488281 C 5.835938 59.875 19.53125 72.785156 62.460938 80.992188 C 71.679688 82.757812 85.277344 85.355469 96.605469 85.355469 C 105.800781 85.355469 113.503906 83.644531 116.160156 78.382812 C 116.8125 77.089844 117.53125 74.757812 116.242188 69.429688 C 115.117188 64.769531 113.121094 60.605469 110.644531 56.898438 C 112.171875 57.003906 113.617188 57.058594 114.964844 57.058594 C 122.941406 57.058594 127.863281 55.238281 129.933594 51.550781 C 130.566406 50.417969 131.300781 48.363281 130.363281 43.570312 Z M 121.40625 29.414062 C 118.710938 29.820312 116.007812 30.277344 113.351562 30.8125 C 104.378906 32.621094 97.328125 34.84375 92.664062 36.316406 C 91.160156 36.789062 89.855469 37.203125 88.769531 37.511719 C 88.214844 37.1875 87.6875 36.886719 87.183594 36.605469 C 89.613281 33.871094 94.9375 29.980469 100.507812 27.636719 C 105.6875 25.453125 111.296875 24.464844 117.167969 24.675781 C 118.644531 26.125 120.074219 27.707031 121.40625 29.414062 Z M 71.5625 31.621094 C 75.398438 33.015625 78.601562 34.460938 81.019531 35.664062 C 75.472656 36.511719 69.917969 37.601562 64.46875 38.949219 C 54.417969 41.4375 46.558594 44.300781 41.355469 46.191406 C 38 47.414062 34.8125 48.574219 33.722656 48.574219 C 33.722656 48.574219 33.71875 48.574219 33.71875 48.574219 C 34.226562 46.621094 40.871094 39.914062 49.695312 35.734375 C 56.296875 32.609375 63.855469 31.191406 71.5625 31.621094 Z M 92.25 8.636719 C 95.394531 9.9375 98.03125 11.253906 100.070312 12.367188 C 95.265625 12.898438 90.449219 13.636719 85.710938 14.59375 C 76.738281 16.402344 69.691406 18.625 65.027344 20.097656 C 62.191406 20.992188 59.492188 21.84375 58.417969 21.898438 C 59.253906 20.050781 65.304688 14.601562 72.871094 11.414062 C 78.792969 8.921875 85.492188 7.964844 92.25 8.636719 Z M 54.738281 3.269531 C 61.167969 2.402344 67.285156 2.570312 72.898438 3.339844 C 71.269531 3.617188 69.636719 3.910156 68.027344 4.234375 C 59.054688 6.046875 52.003906 8.269531 47.339844 9.742188 C 44.511719 10.632812 41.820312 11.484375 40.738281 11.539062 C 41.296875 10.375 44.035156 7.480469 48.679688 4.507812 C 52.097656 3.640625 54.664062 3.28125 54.738281 3.269531 Z M 31.914062 21.8125 C 30.859375 18.953125 31.070312 17.117188 31.320312 15.984375 C 32.328125 11.429688 37.46875 8.359375 42.679688 6.378906 C 40.046875 8.632812 37.917969 11.136719 38.765625 12.695312 C 39.105469 13.324219 39.648438 13.605469 40.535156 13.605469 C 41.953125 13.605469 44.238281 12.882812 47.960938 11.710938 C 52.859375 10.164062 59.570312 8.046875 68.433594 6.261719 C 71.972656 5.546875 75.585938 4.945312 79.179688 4.472656 C 81.667969 5.035156 84.019531 5.699219 86.222656 6.414062 C 81.28125 6.625 76.472656 7.65625 72.066406 9.511719 C 64.476562 12.707031 57.410156 18.535156 56.398438 21.417969 C 56.183594 22.039062 56.199219 22.589844 56.449219 23.050781 C 56.789062 23.679688 57.335938 23.964844 58.21875 23.960938 C 59.636719 23.960938 61.925781 23.242188 65.648438 22.066406 C 70.546875 20.519531 77.253906 18.40625 86.117188 16.617188 C 91.726562 15.484375 97.449219 14.652344 103.125 14.125 C 105.980469 15.824219 110.480469 18.648438 114.929688 22.585938 C 109.589844 22.667969 104.476562 23.71875 99.703125 25.730469 C 93.574219 28.308594 87.851562 32.578125 85.332031 35.585938 C 84.75 35.273438 84.21875 34.992188 83.757812 34.746094 C 81.179688 33.378906 77.246094 31.488281 72.277344 29.683594 C 72.242188 29.664062 72.199219 29.65625 72.160156 29.644531 C 67.785156 28.0625 62.625 26.546875 56.871094 25.515625 C 56.808594 25.496094 56.746094 25.492188 56.683594 25.484375 C 49.625 24.234375 41.695312 23.707031 33.28125 24.660156 C 32.742188 23.722656 32.265625 22.769531 31.914062 21.8125 Z M 28.816406 27.402344 C 36.378906 26.042969 43.617188 25.980469 50.25 26.667969 C 48.136719 27.113281 46.03125 27.59375 43.949219 28.105469 C 33.898438 30.59375 26.039062 33.457031 20.835938 35.347656 C 17.480469 36.570312 14.292969 37.730469 13.207031 37.730469 C 13.570312 36.507812 16.53125 32.941406 21.972656 29.117188 C 25.824219 27.953125 28.730469 27.414062 28.816406 27.402344 Z M 114.316406 77.449219 C 109.085938 87.804688 77.855469 81.832031 62.851562 78.960938 C 20.820312 70.925781 7.542969 58.609375 3.808594 49.691406 C 2.464844 46.476562 2.613281 44.363281 2.84375 43.050781 C 3.800781 37.589844 9.929688 33.75 15.992188 31.238281 C 12.910156 34.007812 10.289062 37.148438 11.351562 38.917969 C 11.714844 39.519531 12.257812 39.800781 13.105469 39.800781 C 14.65625 39.800781 17.226562 38.863281 21.542969 37.292969 C 27.011719 35.300781 34.5 32.574219 44.445312 30.113281 C 48.425781 29.128906 52.492188 28.269531 56.542969 27.554688 C 59.671875 28.117188 62.625 28.824219 65.363281 29.609375 C 59.53125 30.023438 53.902344 31.457031 48.808594 33.867188 C 40.410156 37.84375 32.742188 44.742188 31.746094 48.023438 C 31.542969 48.703125 31.582031 49.285156 31.867188 49.761719 C 32.230469 50.367188 32.777344 50.644531 33.621094 50.644531 C 35.175781 50.644531 37.746094 49.707031 42.0625 48.136719 C 47.527344 46.144531 55.015625 43.417969 64.964844 40.957031 C 71.273438 39.394531 77.722656 38.164062 84.136719 37.289062 C 87.507812 39.101562 92.886719 42.152344 98.230469 46.527344 C 92.085938 46.851562 86.257812 48.300781 80.871094 50.851562 C 72.472656 54.828125 64.804688 61.726562 63.808594 65.007812 C 63.605469 65.683594 63.648438 66.269531 63.933594 66.746094 C 64.292969 67.347656 64.839844 67.625 65.683594 67.625 C 67.238281 67.625 69.808594 66.691406 74.125 65.117188 C 79.59375 63.128906 87.082031 60.402344 97.027344 57.941406 C 100.398438 57.105469 103.839844 56.367188 107.265625 55.722656 C 110.390625 59.804688 112.929688 64.523438 114.230469 69.914062 C 115.492188 75.121094 114.609375 76.875 114.316406 77.449219 Z M 105.800781 53.910156 C 102.695312 54.511719 99.585938 55.179688 96.535156 55.933594 C 86.480469 58.421875 78.621094 61.285156 73.421875 63.179688 C 70.0625 64.398438 66.878906 65.558594 65.789062 65.558594 C 65.785156 65.558594 65.785156 65.558594 65.78125 65.558594 C 66.292969 63.605469 72.933594 56.898438 81.757812 52.71875 C 87.546875 49.980469 93.875 48.578125 100.570312 48.53125 C 102.378906 50.164062 104.152344 51.960938 105.800781 53.910156 Z M 128.128906 50.539062 C 126.046875 54.25 119.636719 55.648438 109.089844 54.703125 C 103.75 47.640625 96.761719 42.445312 91.160156 38.953125 C 91.824219 38.75 92.527344 38.527344 93.289062 38.285156 C 98.1875 36.742188 104.894531 34.625 113.757812 32.835938 C 116.738281 32.234375 119.773438 31.722656 122.796875 31.289062 C 125.367188 34.980469 127.402344 39.207031 128.335938 43.96875 C 129.238281 48.566406 128.40625 50.050781 128.128906 50.539062 Z M 128.128906 50.539062 " fill-opacity="1" fill-rule="nonzero"/></g></g></g></g><g mask="url(#3ce03ee821)"><g><g clip-path="url(#4370eb646b)"><g clip-path="url(#eb89d28960)"><path fill="#eab90e" d="M 131.109375 43.570312 C 127.597656 25.65625 109.632812 15.105469 103.726562 11.640625 C 101.503906 10.332031 98.105469 8.515625 93.789062 6.730469 C 93.761719 6.710938 93.726562 6.707031 93.695312 6.691406 C 89.886719 5.121094 85.375 3.582031 80.320312 2.445312 C 80.273438 2.429688 80.226562 2.425781 80.175781 2.414062 C 72.808594 0.773438 64.3125 -0.0078125 55.207031 1.21875 C 54.902344 1.261719 52.316406 1.625 48.910156 2.492188 C 48.886719 2.496094 48.863281 2.503906 48.839844 2.511719 C 41.929688 4.277344 31.691406 8.109375 30.050781 15.542969 C 29.570312 17.714844 29.789062 20 30.722656 22.527344 C 31.019531 23.339844 31.390625 24.148438 31.8125 24.949219 C 30.945312 25.070312 30.074219 25.210938 29.195312 25.367188 C 28.851562 25.429688 25.945312 25.96875 22.132812 27.117188 C 22.113281 27.121094 22.09375 27.132812 22.070312 27.136719 C 14.375 29.464844 3.03125 34.277344 1.554688 42.695312 C 1.125 45.152344 1.484375 47.699219 2.648438 50.488281 C 6.582031 59.875 20.277344 72.785156 63.207031 80.992188 C 72.421875 82.757812 86.019531 85.355469 97.351562 85.355469 C 106.546875 85.355469 114.25 83.644531 116.90625 78.382812 C 117.558594 77.089844 118.277344 74.757812 116.988281 69.429688 C 115.863281 64.769531 113.867188 60.605469 111.390625 56.898438 C 112.917969 57.003906 114.363281 57.058594 115.710938 57.058594 C 123.6875 57.058594 128.609375 55.238281 130.679688 51.550781 C 131.3125 50.417969 132.046875 48.363281 131.109375 43.570312 Z M 122.152344 29.414062 C 119.453125 29.820312 116.753906 30.277344 114.097656 30.8125 C 105.121094 32.621094 98.074219 34.84375 93.410156 36.316406 C 91.90625 36.789062 90.597656 37.203125 89.511719 37.511719 C 88.960938 37.1875 88.433594 36.886719 87.929688 36.605469 C 90.359375 33.871094 95.683594 29.980469 101.253906 27.636719 C 106.433594 25.453125 112.039062 24.464844 117.914062 24.675781 C 119.390625 26.125 120.820312 27.707031 122.152344 29.414062 Z M 72.308594 31.621094 C 76.144531 33.015625 79.347656 34.460938 81.765625 35.664062 C 76.21875 36.511719 70.664062 37.601562 65.214844 38.949219 C 55.164062 41.4375 47.304688 44.300781 42.101562 46.191406 C 38.746094 47.414062 35.558594 48.574219 34.46875 48.574219 C 34.46875 48.574219 34.464844 48.574219 34.464844 48.574219 C 34.972656 46.621094 41.617188 39.914062 50.441406 35.734375 C 57.042969 32.609375 64.601562 31.191406 72.308594 31.621094 Z M 92.996094 8.636719 C 96.140625 9.9375 98.777344 11.253906 100.816406 12.367188 C 96.011719 12.898438 91.195312 13.636719 86.457031 14.59375 C 77.484375 16.402344 70.4375 18.625 65.773438 20.097656 C 62.9375 20.992188 60.238281 21.84375 59.160156 21.898438 C 60 20.050781 66.050781 14.601562 73.617188 11.414062 C 79.539062 8.921875 86.238281 7.964844 92.996094 8.636719 Z M 55.484375 3.269531 C 61.910156 2.402344 68.03125 2.570312 73.644531 3.339844 C 72.011719 3.617188 70.382812 3.910156 68.769531 4.234375 C 59.800781 6.046875 52.75 8.269531 48.085938 9.742188 C 45.257812 10.632812 42.566406 11.484375 41.484375 11.539062 C 42.042969 10.375 44.78125 7.480469 49.425781 4.507812 C 52.84375 3.640625 55.410156 3.28125 55.484375 3.269531 Z M 32.660156 21.8125 C 31.605469 18.953125 31.816406 17.117188 32.066406 15.984375 C 33.070312 11.429688 38.214844 8.359375 43.425781 6.378906 C 40.792969 8.632812 38.664062 11.136719 39.507812 12.695312 C 39.851562 13.324219 40.394531 13.605469 41.28125 13.605469 C 42.695312 13.605469 44.984375 12.882812 48.707031 11.710938 C 53.605469 10.164062 60.316406 8.046875 69.179688 6.261719 C 72.71875 5.546875 76.332031 4.945312 79.921875 4.472656 C 82.414062 5.035156 84.765625 5.699219 86.96875 6.414062 C 82.027344 6.625 77.21875 7.65625 72.8125 9.511719 C 65.222656 12.707031 58.15625 18.535156 57.144531 21.417969 C 56.929688 22.039062 56.945312 22.589844 57.195312 23.050781 C 57.535156 23.679688 58.078125 23.964844 58.964844 23.960938 C 60.382812 23.960938 62.671875 23.242188 66.394531 22.066406 C 71.292969 20.519531 78 18.40625 86.863281 16.617188 C 92.472656 15.484375 98.191406 14.652344 103.871094 14.125 C 106.726562 15.824219 111.226562 18.648438 115.675781 22.585938 C 110.335938 22.667969 105.222656 23.71875 100.449219 25.730469 C 94.320312 28.308594 88.597656 32.578125 86.074219 35.585938 C 85.496094 35.273438 84.964844 34.992188 84.503906 34.746094 C 81.921875 33.378906 77.992188 31.488281 73.023438 29.683594 C 72.988281 29.664062 72.945312 29.65625 72.90625 29.644531 C 68.53125 28.0625 63.367188 26.546875 57.617188 25.515625 C 57.554688 25.496094 57.492188 25.492188 57.429688 25.484375 C 50.371094 24.234375 42.441406 23.707031 34.027344 24.660156 C 33.488281 23.722656 33.011719 22.769531 32.660156 21.8125 Z M 29.558594 27.402344 C 37.125 26.042969 44.363281 25.980469 50.996094 26.667969 C 48.882812 27.113281 46.777344 27.59375 44.695312 28.105469 C 34.644531 30.59375 26.785156 33.457031 21.582031 35.347656 C 18.226562 36.570312 15.039062 37.730469 13.949219 37.730469 C 14.316406 36.507812 17.277344 32.941406 22.71875 29.117188 C 26.566406 27.953125 29.476562 27.414062 29.558594 27.402344 Z M 115.0625 77.449219 C 109.832031 87.804688 78.601562 81.832031 63.597656 78.960938 C 21.566406 70.925781 8.289062 58.609375 4.554688 49.691406 C 3.210938 46.476562 3.359375 44.363281 3.589844 43.050781 C 4.546875 37.589844 10.671875 33.75 16.738281 31.238281 C 13.65625 34.007812 11.035156 37.148438 12.097656 38.917969 C 12.460938 39.519531 13.003906 39.800781 13.851562 39.800781 C 15.402344 39.800781 17.972656 38.863281 22.289062 37.292969 C 27.757812 35.300781 35.246094 32.574219 45.191406 30.113281 C 49.171875 29.128906 53.238281 28.269531 57.289062 27.554688 C 60.417969 28.117188 63.371094 28.824219 66.109375 29.609375 C 60.277344 30.023438 54.648438 31.457031 49.554688 33.867188 C 41.15625 37.84375 33.484375 44.742188 32.492188 48.023438 C 32.289062 48.703125 32.328125 49.285156 32.613281 49.761719 C 32.976562 50.367188 33.519531 50.644531 34.367188 50.644531 C 35.921875 50.644531 38.488281 49.707031 42.804688 48.136719 C 48.273438 46.144531 55.761719 43.417969 65.710938 40.957031 C 72.019531 39.394531 78.464844 38.164062 84.882812 37.289062 C 88.253906 39.101562 93.632812 42.152344 98.976562 46.527344 C 92.832031 46.851562 87.003906 48.300781 81.617188 50.851562 C 73.21875 54.828125 65.550781 61.726562 64.554688 65.007812 C 64.351562 65.683594 64.394531 66.269531 64.679688 66.746094 C 65.039062 67.347656 65.585938 67.625 66.429688 67.625 C 67.984375 67.625 70.554688 66.691406 74.871094 65.117188 C 80.335938 63.128906 87.828125 60.402344 97.773438 57.941406 C 101.144531 57.105469 104.585938 56.367188 108.011719 55.722656 C 111.132812 59.804688 113.675781 64.523438 114.976562 69.914062 C 116.238281 75.121094 115.351562 76.875 115.0625 77.449219 Z M 106.546875 53.910156 C 103.441406 54.511719 100.332031 55.179688 97.28125 55.933594 C 87.226562 58.421875 79.367188 61.285156 74.167969 63.179688 C 70.808594 64.398438 67.625 65.558594 66.535156 65.558594 C 66.53125 65.558594 66.53125 65.558594 66.527344 65.558594 C 67.039062 63.605469 73.679688 56.898438 82.503906 52.71875 C 88.292969 49.980469 94.621094 48.578125 101.3125 48.53125 C 103.125 50.164062 104.894531 51.960938 106.546875 53.910156 Z M 128.875 50.539062 C 126.792969 54.25 120.382812 55.648438 109.835938 54.703125 C 104.496094 47.640625 97.507812 42.445312 91.90625 38.953125 C 92.570312 38.75 93.273438 38.527344 94.035156 38.285156 C 98.933594 36.742188 105.640625 34.625 114.503906 32.835938 C 117.484375 32.234375 120.519531 31.722656 123.542969 31.289062 C 126.113281 34.980469 128.148438 39.207031 129.082031 43.96875 C 129.984375 48.566406 129.148438 50.050781 128.875 50.539062 Z M 128.875 50.539062 " fill-opacity="1" fill-rule="nonzero"/></g></g></g></g></g></svg>