<svg xmlns="http://www.w3.org/2000/svg" xmlns:xlink="http://www.w3.org/1999/xlink" width="235" zoomAndPan="magnify" viewBox="0 0 176.25 89.999999" height="120" preserveAspectRatio="xMidYMid meet" version="1.0"><defs><clipPath id="d75b18d265"><path d="M 63.554688 68.226562 L 65.871094 68.226562 L 65.871094 70.542969 L 63.554688 70.542969 Z M 63.554688 68.226562 " clip-rule="nonzero"/></clipPath><clipPath id="fbabe20181"><path d="M 15.816406 73.546875 L 99.679688 73.546875 L 99.679688 89.800781 L 15.816406 89.800781 Z M 15.816406 73.546875 " clip-rule="nonzero"/></clipPath><clipPath id="e39c0b7bc3"><path d="M 113 0.191406 L 116 0.191406 L 116 6 L 113 6 Z M 113 0.191406 " clip-rule="nonzero"/></clipPath><clipPath id="c4cf417347"><path d="M 108 0.191406 L 113 0.191406 L 113 4 L 108 4 Z M 108 0.191406 " clip-rule="nonzero"/></clipPath><clipPath id="98ebcec383"><path d="M 167.636719 41.210938 L 175.355469 41.210938 L 175.355469 48.210938 L 167.636719 48.210938 Z M 167.636719 41.210938 " clip-rule="nonzero"/></clipPath></defs><g clip-path="url(#d75b18d265)"><path fill="#eab90e" d="M 63.554688 68.226562 L 65.871094 68.226562 L 65.871094 70.542969 L 63.554688 70.542969 Z M 63.554688 68.226562 " fill-opacity="1" fill-rule="nonzero"/></g><path fill="#eab90e" d="M 0.152344 80.917969 C 0.152344 80.917969 2.035156 80.046875 5.453125 78.507812 C 8.875 76.976562 13.816406 74.746094 20.101562 72.316406 C 23.246094 71.117188 26.734375 69.878906 30.5625 68.75 C 34.390625 67.625 38.5625 66.609375 43.050781 65.925781 C 43.613281 65.839844 44.175781 65.753906 44.746094 65.667969 C 45.316406 65.605469 45.890625 65.539062 46.46875 65.476562 C 46.761719 65.441406 47.050781 65.410156 47.34375 65.378906 C 47.632812 65.347656 47.921875 65.308594 48.226562 65.292969 C 48.824219 65.253906 49.429688 65.207031 50.035156 65.175781 C 52.464844 65.0625 54.953125 65.144531 57.457031 65.390625 C 62.46875 65.886719 67.523438 67.105469 72.476562 68.703125 C 77.4375 70.300781 82.097656 72.152344 86.558594 73.867188 C 91.019531 75.582031 95.292969 77.164062 99.429688 78.355469 C 101.496094 78.957031 103.527344 79.460938 105.511719 79.871094 C 107.492188 80.269531 109.4375 80.570312 111.324219 80.75 C 115.101562 81.121094 118.65625 81.066406 121.847656 80.605469 C 125.035156 80.152344 127.863281 79.316406 130.207031 78.25 C 131.378906 77.714844 132.445312 77.148438 133.386719 76.554688 C 134.324219 75.957031 135.15625 75.367188 135.867188 74.78125 C 137.300781 73.617188 138.300781 72.566406 138.957031 71.835938 C 139.289062 71.472656 139.519531 71.175781 139.683594 70.984375 C 139.847656 70.792969 139.933594 70.691406 139.933594 70.691406 C 139.933594 70.691406 139.867188 70.804688 139.734375 71.019531 C 139.601562 71.234375 139.417969 71.566406 139.144531 71.980469 C 138.597656 72.808594 137.75 74.011719 136.445312 75.402344 C 135.144531 76.792969 133.355469 78.347656 131.003906 79.769531 C 128.660156 81.195312 125.734375 82.429688 122.367188 83.265625 C 118.996094 84.105469 115.1875 84.519531 111.117188 84.449219 C 109.082031 84.417969 106.980469 84.257812 104.832031 83.976562 C 102.6875 83.6875 100.5 83.289062 98.289062 82.78125 C 93.859375 81.777344 89.347656 80.332031 84.777344 78.734375 C 80.210938 77.140625 75.578125 75.390625 70.824219 73.863281 C 66.074219 72.332031 61.414062 71.136719 56.863281 70.542969 C 54.589844 70.246094 52.347656 70.089844 50.152344 70.09375 C 49.601562 70.097656 49.058594 70.117188 48.515625 70.125 C 48.246094 70.125 47.964844 70.148438 47.691406 70.164062 C 47.414062 70.179688 47.140625 70.195312 46.867188 70.214844 C 46.316406 70.246094 45.773438 70.277344 45.230469 70.308594 C 44.6875 70.359375 44.148438 70.410156 43.613281 70.460938 C 39.328125 70.867188 35.257812 71.554688 31.464844 72.34375 C 27.671875 73.136719 24.148438 74.027344 20.9375 74.894531 C 14.523438 76.652344 9.339844 78.246094 5.746094 79.300781 C 2.152344 80.367188 0.152344 80.917969 0.152344 80.917969 " fill-opacity="1" fill-rule="nonzero"/><g clip-path="url(#fbabe20181)"><path fill="#eab90e" d="M 15.898438 81.34375 C 15.898438 81.34375 16.179688 81.226562 16.710938 80.996094 C 17.238281 80.765625 18.027344 80.441406 19.046875 80.027344 C 21.085938 79.210938 24.0625 78.078125 27.84375 76.941406 C 31.621094 75.808594 36.222656 74.675781 41.46875 74.054688 C 42.125 73.980469 42.785156 73.902344 43.476562 73.855469 C 43.816406 73.832031 44.160156 73.804688 44.507812 73.777344 C 44.851562 73.75 45.203125 73.75 45.554688 73.734375 C 45.902344 73.722656 46.257812 73.710938 46.609375 73.699219 C 46.964844 73.703125 47.320312 73.703125 47.679688 73.703125 C 48.035156 73.710938 48.398438 73.703125 48.757812 73.722656 C 49.117188 73.738281 49.480469 73.753906 49.84375 73.773438 C 50.574219 73.796875 51.304688 73.878906 52.042969 73.9375 C 52.78125 74.003906 53.515625 74.109375 54.261719 74.199219 C 55.742188 74.425781 57.242188 74.679688 58.738281 75.023438 C 61.726562 75.6875 64.582031 76.539062 67.277344 77.472656 C 69.972656 78.40625 72.519531 79.40625 74.921875 80.390625 C 77.320312 81.375 79.574219 82.339844 81.683594 83.234375 C 83.792969 84.128906 85.757812 84.949219 87.558594 85.675781 C 89.363281 86.402344 91.007812 87.015625 92.460938 87.550781 C 93.1875 87.800781 93.867188 88.050781 94.496094 88.257812 C 95.125 88.464844 95.699219 88.664062 96.21875 88.824219 C 96.742188 88.988281 97.203125 89.132812 97.605469 89.253906 C 98.011719 89.375 98.355469 89.472656 98.628906 89.550781 C 99.183594 89.714844 99.476562 89.800781 99.476562 89.800781 C 99.476562 89.800781 99.175781 89.773438 98.597656 89.722656 C 98.3125 89.695312 97.953125 89.667969 97.53125 89.625 C 97.113281 89.570312 96.625 89.511719 96.082031 89.445312 C 95.535156 89.378906 94.933594 89.273438 94.269531 89.171875 C 93.605469 89.070312 92.890625 88.929688 92.117188 88.789062 C 90.585938 88.480469 88.835938 88.101562 86.929688 87.605469 C 85.019531 87.113281 82.945312 86.523438 80.738281 85.84375 C 78.527344 85.167969 76.1875 84.40625 73.742188 83.609375 C 68.84375 82.019531 63.515625 80.242188 57.859375 78.988281 C 56.445312 78.667969 55.042969 78.414062 53.660156 78.171875 C 52.96875 78.078125 52.28125 77.957031 51.597656 77.875 C 50.914062 77.800781 50.234375 77.699219 49.5625 77.652344 C 49.222656 77.621094 48.886719 77.589844 48.554688 77.5625 C 48.21875 77.53125 47.886719 77.523438 47.554688 77.5 C 47.226562 77.480469 46.894531 77.460938 46.566406 77.445312 C 46.238281 77.4375 45.910156 77.429688 45.585938 77.421875 C 45.261719 77.417969 44.9375 77.398438 44.613281 77.40625 C 44.292969 77.410156 43.972656 77.414062 43.65625 77.417969 C 43.023438 77.417969 42.378906 77.449219 41.746094 77.472656 C 36.695312 77.691406 32.128906 78.296875 28.300781 78.921875 C 24.46875 79.550781 21.371094 80.1875 19.230469 80.636719 C 17.089844 81.09375 15.898438 81.34375 15.898438 81.34375 " fill-opacity="1" fill-rule="nonzero"/></g><path fill="#eab90e" d="M 53.871094 62.167969 C 53.871094 62.167969 54.195312 62.136719 54.808594 62.070312 C 54.964844 62.054688 55.136719 62.039062 55.328125 62.019531 C 55.519531 61.996094 55.726562 61.976562 55.953125 61.964844 C 56.40625 61.941406 56.933594 61.910156 57.519531 61.875 C 58.109375 61.867188 58.769531 61.84375 59.488281 61.847656 C 60.207031 61.867188 60.992188 61.867188 61.832031 61.925781 C 62.675781 61.960938 63.570312 62.054688 64.523438 62.144531 C 64.996094 62.203125 65.484375 62.265625 65.988281 62.328125 C 66.488281 62.390625 66.996094 62.480469 67.523438 62.558594 C 69.621094 62.902344 71.894531 63.394531 74.308594 64.035156 C 76.722656 64.671875 79.265625 65.457031 81.910156 66.34375 C 84.558594 67.230469 87.308594 68.21875 90.148438 69.222656 C 92.992188 70.226562 95.929688 71.242188 98.964844 72.160156 C 101.992188 73.082031 104.980469 73.828125 107.894531 74.378906 C 110.804688 74.914062 113.652344 75.214844 116.363281 75.285156 C 117.71875 75.316406 119.042969 75.296875 120.324219 75.214844 C 121.605469 75.128906 122.84375 74.984375 124.035156 74.789062 C 125.226562 74.597656 126.359375 74.335938 127.4375 74.039062 C 128.519531 73.746094 129.535156 73.390625 130.484375 73.007812 C 130.722656 72.910156 130.957031 72.8125 131.191406 72.71875 C 131.417969 72.613281 131.640625 72.511719 131.863281 72.40625 C 131.976562 72.355469 132.085938 72.304688 132.195312 72.253906 C 132.304688 72.199219 132.410156 72.144531 132.515625 72.089844 C 132.726562 71.980469 132.9375 71.875 133.140625 71.765625 C 133.347656 71.65625 133.542969 71.539062 133.738281 71.429688 C 133.933594 71.316406 134.132812 71.210938 134.316406 71.089844 C 134.679688 70.851562 135.050781 70.640625 135.382812 70.394531 C 136.738281 69.464844 137.8125 68.523438 138.652344 67.714844 C 139.476562 66.886719 140.082031 66.203125 140.472656 65.722656 C 140.863281 65.242188 141.066406 64.988281 141.066406 64.988281 C 141.066406 64.988281 140.894531 65.265625 140.5625 65.789062 C 140.226562 66.3125 139.695312 67.0625 138.945312 67.988281 C 138.183594 68.894531 137.179688 69.960938 135.871094 71.046875 C 135.550781 71.328125 135.191406 71.582031 134.832031 71.859375 C 134.65625 72.003906 134.460938 72.128906 134.265625 72.261719 C 134.074219 72.394531 133.878906 72.53125 133.675781 72.667969 C 133.472656 72.792969 133.265625 72.925781 133.054688 73.054688 C 132.949219 73.121094 132.839844 73.1875 132.734375 73.253906 C 132.625 73.316406 132.511719 73.378906 132.402344 73.441406 C 132.179688 73.566406 131.953125 73.695312 131.722656 73.820312 C 131.488281 73.941406 131.253906 74.058594 131.011719 74.183594 C 130.046875 74.65625 129.007812 75.109375 127.898438 75.492188 C 126.789062 75.882812 125.613281 76.238281 124.375 76.515625 C 123.140625 76.792969 121.84375 77.019531 120.503906 77.179688 C 119.164062 77.339844 117.777344 77.429688 116.355469 77.453125 C 113.511719 77.507812 110.527344 77.292969 107.476562 76.804688 C 104.433594 76.304688 101.328125 75.566406 98.222656 74.621094 C 95.113281 73.683594 92.144531 72.609375 89.308594 71.535156 C 86.46875 70.457031 83.761719 69.378906 81.179688 68.386719 C 78.597656 67.394531 76.136719 66.488281 73.808594 65.71875 C 71.480469 64.949219 69.289062 64.3125 67.269531 63.820312 C 66.761719 63.703125 66.269531 63.574219 65.785156 63.476562 C 65.296875 63.375 64.824219 63.273438 64.367188 63.179688 C 63.441406 63.011719 62.574219 62.847656 61.75 62.734375 C 60.929688 62.601562 60.164062 62.53125 59.457031 62.445312 C 58.75 62.371094 58.097656 62.328125 57.515625 62.277344 C 56.929688 62.25 56.410156 62.222656 55.957031 62.203125 C 55.734375 62.191406 55.523438 62.1875 55.332031 62.1875 C 55.140625 62.183594 54.96875 62.183594 54.816406 62.179688 C 54.195312 62.171875 53.871094 62.167969 53.871094 62.167969 " fill-opacity="1" fill-rule="nonzero"/><path fill="#eab90e" d="M 118.230469 70.066406 C 118.230469 70.066406 118.40625 70.039062 118.734375 69.984375 C 119.0625 69.925781 119.550781 69.859375 120.171875 69.742188 C 121.414062 69.503906 123.207031 69.121094 125.347656 68.433594 C 125.613281 68.347656 125.886719 68.257812 126.167969 68.164062 C 126.445312 68.074219 126.722656 67.960938 127.011719 67.855469 C 127.296875 67.746094 127.589844 67.644531 127.886719 67.523438 C 128.179688 67.398438 128.476562 67.273438 128.78125 67.144531 C 128.933594 67.082031 129.085938 67.015625 129.238281 66.953125 C 129.390625 66.878906 129.542969 66.808594 129.695312 66.734375 C 130.003906 66.589844 130.316406 66.441406 130.632812 66.292969 C 130.941406 66.128906 131.253906 65.964844 131.574219 65.796875 C 131.730469 65.714844 131.894531 65.632812 132.050781 65.542969 C 132.210938 65.449219 132.367188 65.359375 132.527344 65.265625 C 132.84375 65.078125 133.175781 64.902344 133.492188 64.695312 C 133.808594 64.492188 134.128906 64.289062 134.453125 64.082031 C 134.777344 63.871094 135.089844 63.636719 135.414062 63.414062 C 135.742188 63.195312 136.054688 62.953125 136.371094 62.707031 C 137.640625 61.734375 138.90625 60.65625 140.089844 59.441406 C 141.28125 58.230469 142.359375 56.96875 143.324219 55.691406 C 143.5625 55.367188 143.796875 55.046875 144.03125 54.726562 C 144.25 54.402344 144.46875 54.078125 144.683594 53.757812 C 144.90625 53.441406 145.09375 53.109375 145.296875 52.789062 C 145.496094 52.46875 145.695312 52.152344 145.871094 51.828125 C 146.054688 51.507812 146.234375 51.1875 146.410156 50.875 C 146.574219 50.554688 146.738281 50.238281 146.898438 49.925781 C 147.066406 49.617188 147.210938 49.304688 147.355469 48.996094 C 147.5 48.6875 147.644531 48.386719 147.78125 48.085938 C 148.300781 46.875 148.761719 45.730469 149.117188 44.664062 C 149.210938 44.394531 149.296875 44.136719 149.386719 43.882812 C 149.46875 43.628906 149.539062 43.375 149.613281 43.132812 C 149.6875 42.890625 149.757812 42.652344 149.828125 42.425781 C 149.898438 42.195312 149.949219 41.96875 150.007812 41.753906 C 150.121094 41.316406 150.238281 40.917969 150.324219 40.542969 C 150.410156 40.167969 150.488281 39.820312 150.558594 39.515625 C 150.632812 39.207031 150.683594 38.929688 150.730469 38.6875 C 150.777344 38.449219 150.816406 38.246094 150.847656 38.082031 C 150.914062 37.753906 150.945312 37.582031 150.945312 37.582031 C 150.945312 37.582031 150.929688 37.757812 150.902344 38.089844 C 150.886719 38.257812 150.867188 38.464844 150.847656 38.707031 C 150.824219 38.949219 150.800781 39.234375 150.753906 39.546875 C 150.714844 39.863281 150.667969 40.214844 150.617188 40.597656 C 150.566406 40.984375 150.480469 41.394531 150.40625 41.84375 C 150.363281 42.066406 150.332031 42.296875 150.277344 42.535156 C 150.226562 42.773438 150.171875 43.015625 150.117188 43.265625 C 150.0625 43.515625 150.007812 43.777344 149.945312 44.042969 C 149.875 44.304688 149.804688 44.574219 149.730469 44.851562 C 149.449219 45.960938 149.054688 47.152344 148.59375 48.417969 C 148.472656 48.734375 148.335938 49.050781 148.207031 49.375 C 148.078125 49.699219 147.945312 50.027344 147.789062 50.351562 C 147.640625 50.679688 147.488281 51.011719 147.332031 51.347656 C 147.164062 51.679688 146.996094 52.011719 146.820312 52.351562 C 146.652344 52.691406 146.460938 53.027344 146.265625 53.363281 C 146.070312 53.703125 145.886719 54.050781 145.667969 54.386719 C 145.453125 54.722656 145.238281 55.0625 145.019531 55.40625 C 144.789062 55.742188 144.554688 56.078125 144.316406 56.417969 C 143.34375 57.765625 142.238281 59.089844 141.003906 60.347656 C 139.769531 61.605469 138.445312 62.714844 137.105469 63.695312 C 136.769531 63.941406 136.441406 64.1875 136.097656 64.402344 C 135.753906 64.625 135.421875 64.855469 135.082031 65.0625 C 134.738281 65.265625 134.402344 65.46875 134.066406 65.667969 C 133.730469 65.867188 133.382812 66.035156 133.046875 66.21875 C 132.878906 66.308594 132.714844 66.394531 132.546875 66.480469 C 132.378906 66.570312 132.207031 66.644531 132.042969 66.722656 C 131.707031 66.878906 131.375 67.035156 131.050781 67.1875 C 130.714844 67.324219 130.390625 67.460938 130.066406 67.59375 C 129.902344 67.660156 129.746094 67.726562 129.585938 67.789062 C 129.425781 67.847656 129.265625 67.90625 129.105469 67.960938 C 128.785156 68.074219 128.476562 68.1875 128.167969 68.296875 C 127.859375 68.398438 127.554688 68.484375 127.253906 68.578125 C 126.953125 68.667969 126.664062 68.765625 126.375 68.835938 C 126.082031 68.910156 125.800781 68.984375 125.519531 69.054688 C 123.296875 69.597656 121.464844 69.820312 120.199219 69.941406 C 119.566406 70 119.074219 70.015625 118.738281 70.039062 C 118.40625 70.054688 118.230469 70.066406 118.230469 70.066406 " fill-opacity="1" fill-rule="nonzero"/><path fill="#eab90e" d="M 148.75 60.757812 C 148.75 60.757812 148.578125 60.625 148.253906 60.445312 C 147.933594 60.261719 147.460938 60.039062 146.871094 59.851562 C 146.277344 59.664062 145.5625 59.515625 144.757812 59.480469 C 144.355469 59.460938 143.9375 59.480469 143.484375 59.519531 C 143.03125 59.5625 142.558594 59.636719 142.070312 59.761719 C 141.496094 59.902344 140.984375 60.160156 140.539062 60.460938 C 140.320312 60.621094 140.09375 60.769531 139.894531 60.929688 C 139.695312 61.089844 139.511719 61.253906 139.34375 61.414062 C 138.679688 62.058594 138.300781 62.648438 138.300781 62.648438 C 138.300781 62.648438 138.714844 63.171875 139.410156 63.6875 C 140.109375 64.203125 141.097656 64.714844 142.285156 64.644531 C 142.796875 64.617188 143.28125 64.535156 143.746094 64.414062 C 144.210938 64.296875 144.65625 64.144531 145.050781 63.949219 C 145.847656 63.5625 146.539062 63.082031 147.097656 62.617188 C 147.238281 62.5 147.371094 62.382812 147.496094 62.269531 C 147.613281 62.152344 147.722656 62.039062 147.824219 61.925781 C 148.027344 61.707031 148.199219 61.5 148.335938 61.328125 C 148.609375 60.984375 148.75 60.757812 148.75 60.757812 " fill-opacity="1" fill-rule="nonzero"/><path fill="#eab90e" d="M 147.246094 57.398438 C 148.148438 57.210938 148.949219 56.847656 149.636719 56.414062 C 149.988281 56.199219 150.277344 55.953125 150.554688 55.707031 C 150.828125 55.457031 151.074219 55.207031 151.289062 54.960938 C 151.722656 54.46875 152.050781 54.007812 152.253906 53.667969 C 152.449219 53.320312 152.542969 53.105469 152.542969 53.105469 C 152.542969 53.105469 151.851562 52.707031 150.738281 52.515625 C 149.640625 52.332031 148.074219 52.324219 146.390625 53.03125 C 145.425781 53.453125 144.652344 54.207031 144.148438 54.882812 C 143.898438 55.222656 143.707031 55.535156 143.582031 55.769531 C 143.445312 55.992188 143.371094 56.136719 143.371094 56.136719 C 143.371094 56.136719 143.8125 56.546875 144.515625 56.917969 C 145.222656 57.289062 146.199219 57.625 147.246094 57.398438 " fill-opacity="1" fill-rule="nonzero"/><path fill="#eab90e" d="M 150.757812 50.203125 C 151.566406 49.9375 152.207031 49.511719 152.761719 49.046875 C 153.3125 48.578125 153.753906 48.0625 154.09375 47.585938 C 154.730469 46.609375 154.984375 45.800781 154.984375 45.800781 C 154.984375 45.800781 154.320312 45.515625 153.296875 45.464844 C 152.785156 45.4375 152.183594 45.464844 151.539062 45.605469 C 150.886719 45.746094 150.210938 46.003906 149.46875 46.402344 C 148.617188 46.875 148.058594 47.660156 147.691406 48.328125 C 147.296875 48.984375 147.125 49.535156 147.125 49.535156 C 147.125 49.535156 147.570312 49.847656 148.246094 50.09375 C 148.921875 50.339844 149.824219 50.515625 150.757812 50.203125 " fill-opacity="1" fill-rule="nonzero"/><path fill="#eab90e" d="M 153.054688 43.335938 C 153.71875 43.011719 154.265625 42.582031 154.710938 42.121094 C 154.933594 41.886719 155.128906 41.648438 155.304688 41.410156 C 155.480469 41.175781 155.609375 40.933594 155.730469 40.703125 C 156.210938 39.792969 156.359375 39.058594 156.359375 39.058594 C 156.359375 39.058594 155.742188 38.871094 154.828125 38.917969 C 153.914062 38.960938 152.699219 39.238281 151.527344 40.109375 C 150.820312 40.613281 150.378906 41.359375 150.125 41.988281 C 149.996094 42.304688 149.910156 42.589844 149.855469 42.796875 C 149.792969 43 149.769531 43.125 149.769531 43.125 C 149.769531 43.125 150.195312 43.355469 150.824219 43.503906 C 151.445312 43.648438 152.285156 43.714844 153.054688 43.335938 " fill-opacity="1" fill-rule="nonzero"/><path fill="#eab90e" d="M 154.382812 36.984375 C 154.9375 36.644531 155.378906 36.226562 155.730469 35.785156 C 156.082031 35.347656 156.347656 34.894531 156.507812 34.476562 C 156.847656 33.644531 156.917969 33 156.917969 33 C 156.917969 33 156.359375 32.882812 155.5625 32.996094 C 154.765625 33.105469 153.726562 33.441406 152.773438 34.300781 C 152.1875 34.800781 151.871094 35.492188 151.699219 36.066406 C 151.523438 36.640625 151.496094 37.097656 151.496094 37.097656 C 151.496094 37.097656 151.894531 37.261719 152.457031 37.332031 C 153.015625 37.402344 153.738281 37.378906 154.382812 36.984375 " fill-opacity="1" fill-rule="nonzero"/><path fill="#eab90e" d="M 154.996094 31.265625 C 155.894531 30.605469 156.378906 29.703125 156.636719 28.972656 C 156.699219 28.792969 156.753906 28.621094 156.789062 28.464844 C 156.820312 28.3125 156.84375 28.171875 156.859375 28.058594 C 156.890625 27.828125 156.894531 27.6875 156.894531 27.6875 C 156.894531 27.6875 156.402344 27.625 155.726562 27.769531 C 155.046875 27.917969 154.191406 28.273438 153.390625 29.078125 C 152.929688 29.546875 152.710938 30.171875 152.609375 30.679688 C 152.515625 31.1875 152.503906 31.578125 152.503906 31.578125 C 152.503906 31.578125 152.859375 31.6875 153.347656 31.707031 C 153.59375 31.714844 153.871094 31.703125 154.15625 31.636719 C 154.445312 31.574219 154.738281 31.457031 154.996094 31.265625 " fill-opacity="1" fill-rule="nonzero"/><path fill="#eab90e" d="M 155.066406 26.238281 C 155.433594 25.933594 155.707031 25.585938 155.914062 25.238281 C 156.109375 24.890625 156.234375 24.539062 156.316406 24.230469 C 156.476562 23.605469 156.460938 23.144531 156.460938 23.144531 C 156.460938 23.144531 156.046875 23.113281 155.480469 23.273438 C 154.914062 23.433594 154.199219 23.777344 153.59375 24.5 C 153.417969 24.710938 153.300781 24.949219 153.210938 25.191406 C 153.117188 25.433594 153.058594 25.675781 153.027344 25.890625 C 152.960938 26.324219 152.988281 26.65625 152.988281 26.65625 C 152.988281 26.65625 153.292969 26.726562 153.707031 26.710938 C 154.121094 26.695312 154.640625 26.589844 155.066406 26.238281 " fill-opacity="1" fill-rule="nonzero"/><path fill="#eab90e" d="M 153.746094 22.011719 C 153.789062 21.039062 153.496094 20.257812 153.191406 19.734375 C 152.882812 19.210938 152.566406 18.933594 152.566406 18.933594 C 152.566406 18.933594 152.265625 19.242188 151.988281 19.78125 C 151.710938 20.320312 151.460938 21.082031 151.558594 22.023438 C 151.589844 22.570312 151.855469 23.039062 152.113281 23.378906 C 152.371094 23.714844 152.621094 23.917969 152.621094 23.917969 C 152.621094 23.917969 152.875 23.726562 153.144531 23.390625 C 153.414062 23.058594 153.695312 22.578125 153.746094 22.011719 " fill-opacity="1" fill-rule="nonzero"/><path fill="#eab90e" d="M 136.324219 52.222656 C 136.324219 52.222656 136.507812 52.339844 136.796875 52.566406 C 137.085938 52.796875 137.476562 53.140625 137.878906 53.601562 C 138.277344 54.066406 138.691406 54.648438 139.023438 55.363281 C 139.1875 55.71875 139.339844 56.113281 139.441406 56.53125 C 139.539062 56.945312 139.605469 57.398438 139.625 57.882812 C 139.644531 58.449219 139.535156 58.996094 139.355469 59.5 C 139.269531 59.757812 139.148438 59.984375 139.027344 60.203125 C 138.902344 60.417969 138.769531 60.621094 138.636719 60.804688 C 138.105469 61.542969 137.585938 61.996094 137.585938 61.996094 C 137.585938 61.996094 137.035156 61.632812 136.449219 60.984375 C 135.863281 60.335938 135.242188 59.402344 135.054688 58.3125 C 134.976562 57.847656 134.9375 57.40625 134.933594 56.992188 C 134.929688 56.578125 134.964844 56.195312 134.996094 55.816406 C 135.078125 55.070312 135.253906 54.433594 135.460938 53.910156 C 135.511719 53.78125 135.5625 53.660156 135.617188 53.542969 C 135.664062 53.421875 135.710938 53.308594 135.757812 53.203125 C 135.855469 52.992188 135.949219 52.816406 136.035156 52.667969 C 136.199219 52.378906 136.324219 52.222656 136.324219 52.222656 " fill-opacity="1" fill-rule="nonzero"/><path fill="#eab90e" d="M 139.792969 52.628906 C 139.519531 51.800781 139.414062 51.039062 139.410156 50.363281 C 139.417969 50.03125 139.417969 49.695312 139.449219 49.394531 C 139.480469 49.089844 139.527344 48.8125 139.582031 48.558594 C 139.695312 48.046875 139.855469 47.640625 139.972656 47.355469 C 140.085938 47.0625 140.171875 46.902344 140.171875 46.902344 C 140.171875 46.902344 140.90625 47.21875 141.753906 47.960938 C 142.613281 48.707031 143.527344 49.855469 143.863281 51.613281 C 144.078125 52.648438 143.726562 53.640625 143.355469 54.386719 C 143.171875 54.757812 142.976562 55.0625 142.828125 55.277344 C 142.675781 55.484375 142.566406 55.597656 142.566406 55.597656 C 142.566406 55.597656 142.015625 55.34375 141.402344 54.84375 C 140.789062 54.339844 140.117188 53.601562 139.792969 52.628906 " fill-opacity="1" fill-rule="nonzero"/><path fill="#eab90e" d="M 143.417969 46.789062 C 143.101562 46.089844 142.890625 45.402344 142.804688 44.785156 C 142.714844 44.164062 142.726562 43.605469 142.785156 43.132812 C 142.851562 42.167969 143.121094 41.546875 143.121094 41.546875 C 143.121094 41.546875 143.816406 41.753906 144.648438 42.328125 C 145.066406 42.613281 145.515625 42.992188 145.929688 43.496094 C 146.339844 43.996094 146.734375 44.625 146.957031 45.386719 C 147.230469 46.277344 147.074219 47.226562 146.835938 47.9375 C 146.570312 48.640625 146.25 49.113281 146.25 49.113281 C 146.25 49.113281 145.730469 48.953125 145.117188 48.578125 C 144.503906 48.203125 143.796875 47.617188 143.417969 46.789062 " fill-opacity="1" fill-rule="nonzero"/><path fill="#eab90e" d="M 146.085938 41.046875 C 145.707031 40.445312 145.472656 39.855469 145.339844 39.308594 C 145.273438 39.039062 145.230469 38.777344 145.203125 38.527344 C 145.179688 38.28125 145.15625 38.039062 145.152344 37.824219 C 145.132812 36.949219 145.320312 36.363281 145.320312 36.363281 C 145.320312 36.363281 145.957031 36.480469 146.75 36.914062 C 147.539062 37.347656 148.488281 38.101562 149.097656 39.425781 C 149.429688 40.191406 149.363281 41.042969 149.226562 41.703125 C 149.15625 42.03125 149.066406 42.308594 148.996094 42.503906 C 148.914062 42.699219 148.851562 42.8125 148.851562 42.8125 C 148.851562 42.8125 148.371094 42.726562 147.789062 42.460938 C 147.203125 42.191406 146.53125 41.75 146.085938 41.046875 " fill-opacity="1" fill-rule="nonzero"/><path fill="#eab90e" d="M 147.957031 35.578125 C 147.574219 35.082031 147.320312 34.578125 147.160156 34.105469 C 146.996094 33.636719 146.929688 33.191406 146.875 32.804688 C 146.785156 32.027344 146.902344 31.488281 146.902344 31.488281 C 146.902344 31.488281 147.46875 31.542969 148.199219 31.859375 C 148.929688 32.183594 149.824219 32.769531 150.46875 33.882812 C 150.816406 34.53125 150.839844 35.285156 150.773438 35.871094 C 150.707031 36.460938 150.554688 36.878906 150.554688 36.878906 C 150.554688 36.878906 150.125 36.847656 149.589844 36.667969 C 149.050781 36.488281 148.402344 36.15625 147.957031 35.578125 " fill-opacity="1" fill-rule="nonzero"/><path fill="#eab90e" d="M 149.222656 30.519531 C 148.484375 29.714844 148.191406 28.851562 148.085938 28.179688 C 148.058594 28.015625 148.046875 27.859375 148.035156 27.71875 C 148.019531 27.582031 148.015625 27.457031 148.011719 27.355469 C 148.011719 27.152344 148.023438 27.03125 148.023438 27.03125 C 148.023438 27.03125 148.515625 27.039062 149.167969 27.269531 C 149.824219 27.5 150.652344 27.953125 151.246094 28.867188 C 151.597656 29.398438 151.675781 30.046875 151.667969 30.5625 C 151.667969 31.074219 151.546875 31.445312 151.546875 31.445312 C 151.546875 31.445312 151.171875 31.453125 150.695312 31.339844 C 150.460938 31.28125 150.195312 31.195312 149.941406 31.0625 C 149.6875 30.933594 149.441406 30.753906 149.222656 30.519531 " fill-opacity="1" fill-rule="nonzero"/><path fill="#eab90e" d="M 150.007812 25.957031 C 149.679688 25.640625 149.449219 25.304688 149.28125 24.972656 C 149.101562 24.644531 148.988281 24.324219 148.917969 24.039062 C 148.777344 23.476562 148.804688 23.0625 148.804688 23.0625 C 148.804688 23.0625 149.222656 23.046875 149.78125 23.203125 C 150.34375 23.363281 151.046875 23.703125 151.625 24.4375 C 151.792969 24.65625 151.910156 24.898438 151.980469 25.140625 C 152.042969 25.382812 152.070312 25.628906 152.078125 25.84375 C 152.089844 26.273438 152.019531 26.59375 152.019531 26.59375 C 152.019531 26.59375 151.707031 26.625 151.300781 26.558594 C 150.894531 26.492188 150.390625 26.332031 150.007812 25.957031 " fill-opacity="1" fill-rule="nonzero"/><path fill="#eab90e" d="M 126.050781 59.542969 C 126.050781 59.542969 126.136719 59.390625 126.304688 59.101562 C 126.46875 58.808594 126.726562 58.390625 127.03125 57.832031 C 127.632812 56.722656 128.472656 55.09375 129.300781 53 C 129.402344 52.738281 129.507812 52.46875 129.613281 52.195312 C 129.71875 51.921875 129.808594 51.632812 129.910156 51.34375 C 130.007812 51.050781 130.113281 50.757812 130.207031 50.457031 C 130.296875 50.148438 130.390625 49.839844 130.480469 49.523438 C 130.527344 49.363281 130.574219 49.207031 130.625 49.046875 C 130.664062 48.882812 130.703125 48.71875 130.746094 48.554688 C 130.828125 48.222656 130.914062 47.890625 130.996094 47.550781 C 131.066406 47.207031 131.140625 46.859375 131.210938 46.503906 C 131.246094 46.328125 131.289062 46.152344 131.320312 45.972656 C 131.347656 45.792969 131.378906 45.613281 131.40625 45.429688 C 131.460938 45.066406 131.535156 44.699219 131.578125 44.324219 C 131.621094 43.949219 131.667969 43.570312 131.710938 43.183594 C 131.753906 42.800781 131.773438 42.414062 131.808594 42.019531 C 131.84375 41.628906 131.855469 41.230469 131.867188 40.832031 C 131.921875 39.230469 131.886719 37.570312 131.703125 35.878906 C 131.523438 34.191406 131.230469 32.554688 130.855469 30.996094 C 130.757812 30.609375 130.660156 30.222656 130.5625 29.839844 C 130.449219 29.464844 130.335938 29.089844 130.226562 28.71875 C 130.125 28.347656 129.984375 27.992188 129.867188 27.632812 C 129.746094 27.273438 129.628906 26.917969 129.488281 26.578125 C 129.355469 26.230469 129.222656 25.890625 129.09375 25.554688 C 128.953125 25.222656 128.8125 24.898438 128.671875 24.574219 C 128.539062 24.25 128.390625 23.941406 128.242188 23.632812 C 128.09375 23.328125 127.953125 23.019531 127.808594 22.726562 C 127.203125 21.554688 126.613281 20.472656 126.011719 19.519531 C 125.863281 19.28125 125.722656 19.046875 125.578125 18.820312 C 125.433594 18.59375 125.285156 18.378906 125.144531 18.167969 C 125.003906 17.957031 124.867188 17.75 124.734375 17.550781 C 124.601562 17.351562 124.460938 17.167969 124.332031 16.984375 C 124.066406 16.625 123.832031 16.277344 123.59375 15.972656 C 123.359375 15.667969 123.140625 15.390625 122.949219 15.140625 C 122.757812 14.886719 122.574219 14.671875 122.421875 14.484375 C 122.265625 14.296875 122.132812 14.136719 122.027344 14.011719 C 121.816406 13.75 121.703125 13.617188 121.703125 13.617188 C 121.703125 13.617188 121.828125 13.738281 122.066406 13.972656 C 122.1875 14.089844 122.335938 14.234375 122.507812 14.40625 C 122.683594 14.578125 122.886719 14.773438 123.101562 15.007812 C 123.316406 15.242188 123.558594 15.5 123.824219 15.785156 C 124.089844 16.066406 124.355469 16.394531 124.652344 16.734375 C 124.796875 16.910156 124.957031 17.082031 125.105469 17.273438 C 125.253906 17.460938 125.410156 17.660156 125.570312 17.859375 C 125.726562 18.0625 125.894531 18.269531 126.058594 18.484375 C 126.21875 18.707031 126.378906 18.933594 126.546875 19.164062 C 127.222656 20.085938 127.894531 21.148438 128.578125 22.308594 C 128.75 22.601562 128.90625 22.90625 129.074219 23.210938 C 129.242188 23.519531 129.410156 23.828125 129.566406 24.15625 C 129.722656 24.480469 129.882812 24.808594 130.042969 25.140625 C 130.191406 25.480469 130.34375 25.824219 130.496094 26.171875 C 130.652344 26.519531 130.789062 26.878906 130.925781 27.246094 C 131.0625 27.609375 131.214844 27.976562 131.335938 28.355469 C 131.460938 28.734375 131.585938 29.117188 131.714844 29.503906 C 131.824219 29.898438 131.9375 30.292969 132.046875 30.691406 C 132.46875 32.296875 132.792969 33.992188 132.980469 35.746094 C 133.171875 37.5 133.1875 39.230469 133.097656 40.886719 C 133.074219 41.304688 133.054688 41.714844 133.003906 42.121094 C 132.957031 42.523438 132.925781 42.925781 132.871094 43.320312 C 132.808594 43.71875 132.75 44.105469 132.691406 44.492188 C 132.632812 44.878906 132.542969 45.257812 132.472656 45.628906 C 132.433594 45.816406 132.394531 46 132.359375 46.1875 C 132.320312 46.371094 132.269531 46.550781 132.226562 46.730469 C 132.132812 47.089844 132.042969 47.441406 131.953125 47.792969 C 131.847656 48.136719 131.746094 48.476562 131.644531 48.8125 C 131.59375 48.976562 131.542969 49.144531 131.492188 49.308594 C 131.433594 49.46875 131.375 49.628906 131.320312 49.789062 C 131.203125 50.105469 131.09375 50.417969 130.980469 50.726562 C 130.867188 51.03125 130.738281 51.324219 130.621094 51.613281 C 130.5 51.902344 130.390625 52.1875 130.261719 52.460938 C 130.136719 52.730469 130.011719 52.996094 129.890625 53.253906 C 128.898438 55.320312 127.910156 56.882812 127.199219 57.9375 C 126.84375 58.46875 126.542969 58.859375 126.351562 59.132812 C 126.152344 59.402344 126.050781 59.542969 126.050781 59.542969 " fill-opacity="1" fill-rule="nonzero"/><path fill="#eab90e" d="M 138.210938 30.011719 C 138.210938 30.011719 137.996094 30.058594 137.652344 30.195312 C 137.308594 30.328125 136.835938 30.550781 136.316406 30.890625 C 135.796875 31.230469 135.230469 31.691406 134.691406 32.292969 C 134.421875 32.589844 134.171875 32.925781 133.917969 33.300781 C 133.660156 33.679688 133.417969 34.09375 133.203125 34.550781 C 132.953125 35.082031 132.824219 35.644531 132.777344 36.179688 C 132.757812 36.449219 132.730469 36.71875 132.730469 36.976562 C 132.726562 37.230469 132.734375 37.480469 132.753906 37.710938 C 132.828125 38.628906 133.046875 39.300781 133.046875 39.300781 C 133.046875 39.300781 133.710938 39.3125 134.550781 39.097656 C 135.394531 38.882812 136.414062 38.445312 137.113281 37.480469 C 137.414062 37.066406 137.660156 36.636719 137.863281 36.203125 C 138.066406 35.769531 138.230469 35.324219 138.328125 34.898438 C 138.539062 34.035156 138.601562 33.195312 138.597656 32.46875 C 138.597656 32.285156 138.59375 32.109375 138.582031 31.941406 C 138.566406 31.777344 138.546875 31.617188 138.523438 31.46875 C 138.484375 31.171875 138.433594 30.910156 138.386719 30.695312 C 138.292969 30.261719 138.210938 30.011719 138.210938 30.011719 " fill-opacity="1" fill-rule="nonzero"/><path fill="#eab90e" d="M 134.664062 29.042969 C 135.089844 28.226562 135.316406 27.375 135.414062 26.570312 C 135.472656 26.164062 135.46875 25.78125 135.453125 25.410156 C 135.433594 25.039062 135.394531 24.691406 135.34375 24.367188 C 135.234375 23.71875 135.089844 23.175781 134.957031 22.800781 C 134.8125 22.429688 134.707031 22.21875 134.707031 22.21875 C 134.707031 22.21875 133.957031 22.503906 133.105469 23.246094 C 132.265625 23.980469 131.269531 25.1875 130.746094 26.9375 C 130.460938 27.953125 130.554688 29.027344 130.757812 29.847656 C 130.859375 30.257812 130.980469 30.605469 131.078125 30.847656 C 131.167969 31.097656 131.230469 31.242188 131.230469 31.242188 C 131.230469 31.242188 131.828125 31.164062 132.5625 30.855469 C 133.292969 30.542969 134.175781 30 134.664062 29.042969 " fill-opacity="1" fill-rule="nonzero"/><path fill="#eab90e" d="M 131.332031 21.761719 C 131.640625 20.96875 131.71875 20.203125 131.707031 19.480469 C 131.695312 18.757812 131.578125 18.089844 131.425781 17.519531 C 131.074219 16.40625 130.609375 15.699219 130.609375 15.699219 C 130.609375 15.699219 129.96875 16.035156 129.28125 16.792969 C 128.9375 17.171875 128.578125 17.65625 128.277344 18.246094 C 127.972656 18.835938 127.738281 19.523438 127.582031 20.351562 C 127.40625 21.3125 127.65625 22.242188 127.9375 22.949219 C 128.195312 23.667969 128.511719 24.152344 128.511719 24.152344 C 128.511719 24.152344 129.039062 24.007812 129.65625 23.640625 C 130.273438 23.273438 130.980469 22.683594 131.332031 21.761719 " fill-opacity="1" fill-rule="nonzero"/><path fill="#eab90e" d="M 127.484375 15.628906 C 127.652344 14.910156 127.667969 14.214844 127.59375 13.578125 C 127.554688 13.257812 127.496094 12.953125 127.421875 12.667969 C 127.351562 12.382812 127.246094 12.128906 127.148438 11.890625 C 126.746094 10.941406 126.277344 10.359375 126.277344 10.359375 C 126.277344 10.359375 125.738281 10.71875 125.195312 11.457031 C 124.648438 12.195312 124.09375 13.304688 124.027344 14.765625 C 123.964844 15.632812 124.261719 16.449219 124.585938 17.046875 C 124.746094 17.347656 124.917969 17.59375 125.039062 17.765625 C 125.15625 17.941406 125.238281 18.042969 125.238281 18.042969 C 125.238281 18.042969 125.6875 17.855469 126.199219 17.464844 C 126.707031 17.074219 127.289062 16.464844 127.484375 15.628906 " fill-opacity="1" fill-rule="nonzero"/><path fill="#eab90e" d="M 123.421875 10.574219 C 123.511719 9.929688 123.464844 9.324219 123.351562 8.773438 C 123.234375 8.222656 123.050781 7.730469 122.832031 7.339844 C 122.40625 6.550781 121.949219 6.085938 121.949219 6.085938 C 121.949219 6.085938 121.507812 6.445312 121.085938 7.132812 C 120.667969 7.820312 120.269531 8.835938 120.328125 10.121094 C 120.34375 10.890625 120.675781 11.574219 121.011719 12.074219 C 121.34375 12.570312 121.679688 12.882812 121.679688 12.882812 C 121.679688 12.882812 122.054688 12.679688 122.46875 12.289062 C 122.878906 11.898438 123.316406 11.324219 123.421875 10.574219 " fill-opacity="1" fill-rule="nonzero"/><path fill="#eab90e" d="M 119.394531 6.472656 C 119.453125 5.359375 119.0625 4.414062 118.664062 3.75 C 118.5625 3.585938 118.464844 3.433594 118.367188 3.3125 C 118.269531 3.1875 118.175781 3.082031 118.097656 2.996094 C 117.9375 2.828125 117.832031 2.738281 117.832031 2.738281 C 117.832031 2.738281 117.472656 3.074219 117.15625 3.695312 C 116.839844 4.3125 116.574219 5.199219 116.6875 6.328125 C 116.757812 6.988281 117.097656 7.546875 117.425781 7.949219 C 117.761719 8.347656 118.054688 8.601562 118.054688 8.601562 C 118.054688 8.601562 118.363281 8.398438 118.6875 8.03125 C 118.851562 7.847656 119.015625 7.621094 119.148438 7.359375 C 119.28125 7.097656 119.378906 6.796875 119.394531 6.472656 " fill-opacity="1" fill-rule="nonzero"/><g clip-path="url(#e39c0b7bc3)"><path fill="#eab90e" d="M 115.554688 3.230469 C 115.550781 2.757812 115.457031 2.324219 115.320312 1.941406 C 115.175781 1.570312 114.984375 1.253906 114.792969 0.992188 C 114.417969 0.472656 114.050781 0.191406 114.050781 0.191406 C 114.050781 0.191406 113.765625 0.492188 113.527344 1.03125 C 113.292969 1.570312 113.105469 2.34375 113.277344 3.269531 C 113.328125 3.539062 113.441406 3.785156 113.570312 4.003906 C 113.695312 4.230469 113.847656 4.429688 113.992188 4.589844 C 114.285156 4.917969 114.558594 5.105469 114.558594 5.105469 C 114.558594 5.105469 114.808594 4.914062 115.058594 4.585938 C 115.304688 4.253906 115.558594 3.789062 115.554688 3.230469 " fill-opacity="1" fill-rule="nonzero"/></g><g clip-path="url(#c4cf417347)"><path fill="#eab90e" d="M 111.453125 1.574219 C 110.730469 0.921875 109.941406 0.65625 109.34375 0.5625 C 108.742188 0.46875 108.328125 0.535156 108.328125 0.535156 C 108.328125 0.535156 108.375 0.964844 108.617188 1.523438 C 108.855469 2.078125 109.285156 2.757812 110.074219 3.277344 C 110.519531 3.597656 111.050781 3.691406 111.472656 3.707031 C 111.894531 3.71875 112.210938 3.65625 112.210938 3.65625 C 112.210938 3.65625 112.226562 3.335938 112.136719 2.917969 C 112.050781 2.5 111.859375 1.972656 111.453125 1.574219 " fill-opacity="1" fill-rule="nonzero"/></g><path fill="#eab90e" d="M 123.738281 34.222656 C 123.738281 34.222656 123.945312 34.152344 124.308594 34.074219 C 124.667969 33.996094 125.179688 33.910156 125.789062 33.890625 C 126.402344 33.875 127.113281 33.921875 127.875 34.121094 C 128.253906 34.21875 128.65625 34.351562 129.042969 34.539062 C 129.429688 34.726562 129.816406 34.960938 130.203125 35.253906 C 130.65625 35.597656 131.007812 36.03125 131.285156 36.488281 C 131.425781 36.714844 131.523438 36.953125 131.617188 37.1875 C 131.703125 37.421875 131.777344 37.652344 131.835938 37.871094 C 132.070312 38.75 132.085938 39.441406 132.085938 39.441406 C 132.085938 39.441406 131.457031 39.632812 130.585938 39.675781 C 129.714844 39.71875 128.597656 39.613281 127.640625 39.0625 C 127.230469 38.832031 126.863281 38.578125 126.542969 38.320312 C 126.21875 38.0625 125.945312 37.789062 125.675781 37.527344 C 125.148438 36.992188 124.769531 36.449219 124.496094 35.960938 C 124.425781 35.839844 124.367188 35.71875 124.308594 35.605469 C 124.246094 35.492188 124.191406 35.382812 124.140625 35.277344 C 124.039062 35.070312 123.960938 34.886719 123.898438 34.730469 C 123.78125 34.417969 123.738281 34.222656 123.738281 34.222656 " fill-opacity="1" fill-rule="nonzero"/><path fill="#eab90e" d="M 126.25 31.792969 C 125.4375 31.480469 124.785156 31.078125 124.261719 30.652344 C 124.007812 30.433594 123.75 30.222656 123.539062 30.007812 C 123.324219 29.792969 123.136719 29.578125 122.976562 29.371094 C 122.652344 28.960938 122.441406 28.582031 122.292969 28.308594 C 122.140625 28.039062 122.070312 27.867188 122.070312 27.867188 C 122.070312 27.867188 122.78125 27.5 123.890625 27.3125 C 125.011719 27.125 126.480469 27.140625 128.050781 27.996094 C 128.984375 28.488281 129.527344 29.390625 129.871094 30.144531 C 130.039062 30.523438 130.152344 30.871094 130.222656 31.117188 C 130.285156 31.371094 130.304688 31.527344 130.304688 31.527344 C 130.304688 31.527344 129.761719 31.792969 128.984375 31.949219 C 128.207031 32.105469 127.207031 32.15625 126.25 31.792969 " fill-opacity="1" fill-rule="nonzero"/><path fill="#eab90e" d="M 124.042969 25.285156 C 123.300781 25.085938 122.636719 24.808594 122.105469 24.484375 C 121.566406 24.164062 121.144531 23.800781 120.816406 23.453125 C 120.117188 22.789062 119.804688 22.1875 119.804688 22.1875 C 119.804688 22.1875 120.40625 21.78125 121.375 21.5 C 121.863281 21.359375 122.441406 21.25 123.089844 21.246094 C 123.738281 21.246094 124.472656 21.34375 125.203125 21.652344 C 126.0625 22.003906 126.699219 22.730469 127.09375 23.363281 C 127.46875 24.011719 127.632812 24.558594 127.632812 24.558594 C 127.632812 24.558594 127.179688 24.863281 126.5 25.101562 C 125.824219 25.339844 124.921875 25.511719 124.042969 25.285156 " fill-opacity="1" fill-rule="nonzero"/><path fill="#eab90e" d="M 121.296875 19.578125 C 120.589844 19.488281 119.988281 19.292969 119.484375 19.050781 C 119.230469 18.933594 119 18.800781 118.792969 18.660156 C 118.589844 18.523438 118.386719 18.390625 118.214844 18.253906 C 117.527344 17.714844 117.195312 17.199219 117.195312 17.199219 C 117.195312 17.199219 117.691406 16.78125 118.527344 16.441406 C 119.363281 16.105469 120.546875 15.847656 121.953125 16.214844 C 122.757812 16.445312 123.375 17.035156 123.792969 17.558594 C 124.003906 17.820312 124.164062 18.066406 124.269531 18.25 C 124.367188 18.433594 124.414062 18.550781 124.414062 18.550781 C 124.414062 18.550781 124.042969 18.871094 123.46875 19.152344 C 122.890625 19.4375 122.125 19.675781 121.296875 19.578125 " fill-opacity="1" fill-rule="nonzero"/><path fill="#eab90e" d="M 118.261719 14.660156 C 117.632812 14.640625 117.085938 14.519531 116.617188 14.34375 C 116.152344 14.171875 115.765625 13.945312 115.429688 13.738281 C 114.777344 13.3125 114.433594 12.882812 114.433594 12.882812 C 114.433594 12.882812 114.835938 12.476562 115.542969 12.113281 C 116.253906 11.753906 117.277344 11.433594 118.542969 11.640625 C 119.265625 11.777344 119.859375 12.242188 120.269531 12.664062 C 120.683594 13.089844 120.910156 13.472656 120.910156 13.472656 C 120.910156 13.472656 120.617188 13.789062 120.136719 14.089844 C 119.65625 14.390625 118.992188 14.679688 118.261719 14.660156 " fill-opacity="1" fill-rule="nonzero"/><path fill="#eab90e" d="M 115.15625 10.472656 C 114.066406 10.535156 113.214844 10.210938 112.628906 9.871094 C 112.484375 9.785156 112.355469 9.695312 112.242188 9.617188 C 112.125 9.539062 112.027344 9.464844 111.945312 9.402344 C 111.785156 9.277344 111.703125 9.191406 111.703125 9.191406 C 111.703125 9.191406 112.023438 8.8125 112.613281 8.453125 C 113.203125 8.09375 114.082031 7.738281 115.160156 7.855469 C 115.796875 7.921875 116.351562 8.273438 116.738281 8.605469 C 117.136719 8.933594 117.34375 9.261719 117.34375 9.261719 C 117.34375 9.261719 117.113281 9.554688 116.722656 9.847656 C 116.527344 9.996094 116.296875 10.144531 116.03125 10.261719 C 115.769531 10.375 115.476562 10.453125 115.15625 10.472656 " fill-opacity="1" fill-rule="nonzero"/><path fill="#eab90e" d="M 112.132812 6.972656 C 111.679688 7.023438 111.269531 6.992188 110.910156 6.910156 C 110.542969 6.839844 110.222656 6.726562 109.957031 6.601562 C 109.433594 6.351562 109.132812 6.070312 109.132812 6.070312 C 109.132812 6.070312 109.382812 5.734375 109.859375 5.402344 C 110.339844 5.070312 111.046875 4.738281 111.984375 4.757812 C 112.257812 4.761719 112.519531 4.828125 112.75 4.925781 C 112.980469 5.03125 113.183594 5.164062 113.351562 5.296875 C 113.695312 5.5625 113.898438 5.816406 113.898438 5.816406 C 113.898438 5.816406 113.722656 6.078125 113.414062 6.351562 C 113.105469 6.625 112.660156 6.914062 112.132812 6.972656 " fill-opacity="1" fill-rule="nonzero"/><path fill="#eab90e" d="M 133.269531 87.457031 C 133.269531 87.457031 133.484375 87.386719 133.886719 87.257812 C 134.289062 87.121094 134.890625 86.949219 135.644531 86.683594 C 137.160156 86.152344 139.339844 85.339844 141.898438 84.074219 C 142.21875 83.914062 142.542969 83.753906 142.878906 83.585938 C 143.210938 83.417969 143.539062 83.222656 143.878906 83.035156 C 144.21875 82.847656 144.570312 82.660156 144.917969 82.457031 C 145.261719 82.246094 145.613281 82.03125 145.96875 81.816406 C 146.148438 81.707031 146.328125 81.597656 146.507812 81.484375 C 146.6875 81.367188 146.863281 81.25 147.042969 81.128906 C 147.402344 80.886719 147.765625 80.644531 148.132812 80.398438 C 148.492188 80.136719 148.855469 79.871094 149.222656 79.601562 C 149.40625 79.464844 149.597656 79.332031 149.777344 79.191406 C 149.957031 79.046875 150.140625 78.902344 150.324219 78.753906 C 150.683594 78.457031 151.066406 78.175781 151.425781 77.859375 C 151.789062 77.542969 152.152344 77.226562 152.523438 76.90625 C 152.886719 76.578125 153.238281 76.230469 153.601562 75.890625 C 153.972656 75.554688 154.320312 75.1875 154.671875 74.824219 C 156.085938 73.363281 157.46875 71.773438 158.730469 70.023438 C 160 68.285156 161.117188 66.496094 162.09375 64.710938 C 162.328125 64.257812 162.566406 63.8125 162.796875 63.371094 C 163.011719 62.921875 163.226562 62.472656 163.4375 62.03125 C 163.660156 61.59375 163.832031 61.140625 164.027344 60.703125 C 164.21875 60.261719 164.410156 59.824219 164.570312 59.386719 C 164.738281 58.945312 164.902344 58.515625 165.066406 58.085938 C 165.214844 57.65625 165.359375 57.226562 165.503906 56.804688 C 165.65625 56.386719 165.777344 55.964844 165.902344 55.550781 C 166.023438 55.136719 166.152344 54.730469 166.265625 54.328125 C 166.695312 52.710938 167.058594 51.1875 167.308594 49.78125 C 167.371094 49.429688 167.433594 49.085938 167.496094 48.753906 C 167.550781 48.417969 167.59375 48.085938 167.644531 47.769531 C 167.691406 47.449219 167.734375 47.140625 167.78125 46.839844 C 167.824219 46.539062 167.847656 46.246094 167.882812 45.960938 C 167.941406 45.394531 168.015625 44.867188 168.050781 44.382812 C 168.089844 43.894531 168.121094 43.449219 168.152344 43.046875 C 168.191406 42.648438 168.199219 42.289062 168.214844 41.980469 C 168.226562 41.671875 168.238281 41.410156 168.25 41.199219 C 168.269531 40.773438 168.28125 40.550781 168.28125 40.550781 C 168.28125 40.550781 168.292969 40.773438 168.320312 41.195312 C 168.332031 41.410156 168.347656 41.671875 168.363281 41.980469 C 168.382812 42.289062 168.40625 42.648438 168.410156 43.054688 C 168.414062 43.457031 168.421875 43.90625 168.429688 44.398438 C 168.4375 44.890625 168.410156 45.425781 168.398438 46 C 168.386719 46.289062 168.386719 46.585938 168.367188 46.890625 C 168.347656 47.199219 168.324219 47.515625 168.304688 47.839844 C 168.277344 48.167969 168.261719 48.503906 168.230469 48.847656 C 168.191406 49.191406 168.152344 49.542969 168.113281 49.902344 C 167.964844 51.347656 167.691406 52.917969 167.347656 54.597656 C 167.257812 55.015625 167.148438 55.4375 167.042969 55.867188 C 166.941406 56.296875 166.835938 56.734375 166.703125 57.171875 C 166.574219 57.613281 166.445312 58.058594 166.316406 58.507812 C 166.164062 58.957031 166.011719 59.40625 165.859375 59.863281 C 165.710938 60.324219 165.53125 60.78125 165.351562 61.242188 C 165.167969 61.699219 165.003906 62.175781 164.789062 62.632812 C 164.585938 63.097656 164.378906 63.566406 164.167969 64.039062 C 163.9375 64.5 163.707031 64.96875 163.472656 65.441406 C 162.503906 67.3125 161.363281 69.179688 160.046875 70.988281 C 158.734375 72.804688 157.277344 74.441406 155.777344 75.925781 C 155.40625 76.296875 155.035156 76.664062 154.644531 77.003906 C 154.257812 77.347656 153.882812 77.695312 153.496094 78.023438 C 153.101562 78.339844 152.714844 78.65625 152.328125 78.96875 C 151.945312 79.285156 151.542969 79.558594 151.15625 79.851562 C 150.960938 79.992188 150.765625 80.136719 150.574219 80.277344 C 150.382812 80.417969 150.179688 80.542969 149.984375 80.675781 C 149.59375 80.933594 149.207031 81.191406 148.828125 81.445312 C 148.433594 81.679688 148.046875 81.910156 147.667969 82.136719 C 147.476562 82.25 147.289062 82.363281 147.101562 82.472656 C 146.910156 82.578125 146.71875 82.679688 146.53125 82.777344 C 146.152344 82.980469 145.78125 83.179688 145.414062 83.371094 C 145.046875 83.5625 144.679688 83.726562 144.320312 83.898438 C 143.960938 84.066406 143.613281 84.242188 143.265625 84.390625 C 142.914062 84.535156 142.570312 84.679688 142.234375 84.820312 C 139.546875 85.917969 137.285156 86.542969 135.71875 86.929688 C 134.933594 87.121094 134.316406 87.234375 133.902344 87.324219 C 133.488281 87.410156 133.269531 87.457031 133.269531 87.457031 " fill-opacity="1" fill-rule="nonzero"/><path fill="#eab90e" d="M 169.847656 70.0625 C 169.847656 70.0625 169.605469 69.921875 169.167969 69.757812 C 168.730469 69.589844 168.097656 69.394531 167.316406 69.269531 C 166.539062 69.148438 165.613281 69.09375 164.597656 69.203125 C 164.089844 69.253906 163.570312 69.351562 163.007812 69.488281 C 162.445312 69.625 161.867188 69.808594 161.273438 70.054688 C 160.582031 70.34375 159.988281 70.757812 159.484375 71.222656 C 159.238281 71.460938 158.984375 71.691406 158.765625 71.929688 C 158.542969 72.167969 158.339844 72.410156 158.164062 72.644531 C 157.449219 73.574219 157.082031 74.386719 157.082031 74.386719 C 157.082031 74.386719 157.699219 74.964844 158.671875 75.484375 C 159.644531 76.003906 160.980469 76.457031 162.460938 76.148438 C 163.09375 76.015625 163.691406 75.824219 164.25 75.585938 C 164.8125 75.351562 165.34375 75.078125 165.800781 74.757812 C 166.730469 74.125 167.503906 73.390625 168.121094 72.699219 C 168.277344 72.527344 168.421875 72.359375 168.554688 72.191406 C 168.679688 72.023438 168.796875 71.855469 168.90625 71.699219 C 169.117188 71.382812 169.296875 71.097656 169.433594 70.851562 C 169.714844 70.367188 169.847656 70.0625 169.847656 70.0625 " fill-opacity="1" fill-rule="nonzero"/><path fill="#eab90e" d="M 167.335938 66.121094 C 168.433594 65.714844 169.367188 65.109375 170.152344 64.4375 C 170.550781 64.105469 170.871094 63.738281 171.171875 63.378906 C 171.46875 63.015625 171.726562 62.652344 171.957031 62.300781 C 172.40625 61.605469 172.734375 60.96875 172.925781 60.5 C 173.109375 60.03125 173.183594 59.738281 173.183594 59.738281 C 173.183594 59.738281 172.238281 59.367188 170.804688 59.339844 C 169.390625 59.3125 167.421875 59.597656 165.445312 60.800781 C 164.3125 61.511719 163.484375 62.601562 162.976562 63.546875 C 162.722656 64.015625 162.542969 64.445312 162.425781 64.761719 C 162.300781 65.070312 162.234375 65.261719 162.234375 65.261719 C 162.234375 65.261719 162.863281 65.695312 163.816406 66.03125 C 164.769531 66.363281 166.0625 66.605469 167.335938 66.121094 " fill-opacity="1" fill-rule="nonzero"/><path fill="#eab90e" d="M 170.398438 56.429688 C 171.367188 55.945312 172.089844 55.292969 172.699219 54.605469 C 173.300781 53.914062 173.761719 53.183594 174.101562 52.519531 C 174.71875 51.175781 174.882812 50.113281 174.882812 50.113281 C 174.882812 50.113281 173.996094 49.882812 172.703125 50.007812 C 172.054688 50.070312 171.308594 50.21875 170.519531 50.515625 C 169.730469 50.8125 168.925781 51.261719 168.074219 51.902344 C 167.089844 52.65625 166.535156 53.746094 166.199219 54.652344 C 165.828125 55.546875 165.710938 56.269531 165.710938 56.269531 C 165.710938 56.269531 166.332031 56.582031 167.226562 56.765625 C 168.117188 56.945312 169.289062 57 170.398438 56.429688 " fill-opacity="1" fill-rule="nonzero"/><g clip-path="url(#98ebcec383)"><path fill="#eab90e" d="M 172 47.378906 C 172.773438 46.847656 173.378906 46.207031 173.851562 45.542969 C 174.089844 45.210938 174.292969 44.871094 174.46875 44.542969 C 174.644531 44.210938 174.761719 43.882812 174.871094 43.574219 C 175.300781 42.339844 175.355469 41.390625 175.355469 41.390625 C 175.355469 41.390625 174.542969 41.269531 173.402344 41.5 C 172.261719 41.726562 170.792969 42.300781 169.484375 43.613281 C 168.6875 44.378906 168.277344 45.398438 168.070312 46.238281 C 167.96875 46.65625 167.914062 47.03125 167.886719 47.300781 C 167.847656 47.566406 167.835938 47.730469 167.835938 47.730469 C 167.835938 47.730469 168.417969 47.941406 169.230469 48.007812 C 170.039062 48.074219 171.105469 47.996094 172 47.378906 " fill-opacity="1" fill-rule="nonzero"/></g><path fill="#eab90e" d="M 172.484375 39.15625 C 173.117188 38.628906 173.59375 38.015625 173.953125 37.402344 C 174.308594 36.785156 174.558594 36.164062 174.683594 35.613281 C 174.957031 34.507812 174.921875 33.679688 174.921875 33.679688 C 174.921875 33.679688 174.199219 33.636719 173.21875 33.925781 C 172.238281 34.214844 170.996094 34.832031 169.960938 36.089844 C 169.320312 36.824219 169.050781 37.753906 168.941406 38.507812 C 168.832031 39.261719 168.882812 39.839844 168.882812 39.839844 C 168.882812 39.839844 169.410156 39.96875 170.128906 39.953125 C 170.847656 39.9375 171.746094 39.773438 172.484375 39.15625 " fill-opacity="1" fill-rule="nonzero"/><path fill="#eab90e" d="M 172.1875 31.863281 C 173.191406 30.863281 173.628906 29.640625 173.820312 28.679688 C 173.867188 28.4375 173.902344 28.210938 173.914062 28.011719 C 173.925781 27.8125 173.929688 27.632812 173.925781 27.484375 C 173.921875 27.191406 173.898438 27.015625 173.898438 27.015625 C 173.898438 27.015625 173.273438 27.027344 172.449219 27.339844 C 171.625 27.648438 170.621094 28.257812 169.765625 29.417969 C 169.269531 30.09375 169.113281 30.914062 169.082031 31.570312 C 169.058594 32.226562 169.117188 32.722656 169.117188 32.722656 C 169.117188 32.722656 169.582031 32.792969 170.199219 32.726562 C 170.507812 32.691406 170.855469 32.621094 171.203125 32.484375 C 171.550781 32.351562 171.898438 32.152344 172.1875 31.863281 " fill-opacity="1" fill-rule="nonzero"/><path fill="#eab90e" d="M 171.335938 25.535156 C 171.738281 25.085938 172.019531 24.601562 172.214844 24.125 C 172.394531 23.648438 172.484375 23.1875 172.527344 22.78125 C 172.613281 21.96875 172.511719 21.390625 172.511719 21.390625 C 172.511719 21.390625 171.984375 21.433594 171.304688 21.738281 C 170.625 22.042969 169.789062 22.609375 169.164062 23.628906 C 168.980469 23.925781 168.878906 24.25 168.8125 24.570312 C 168.738281 24.890625 168.710938 25.203125 168.710938 25.484375 C 168.707031 26.039062 168.804688 26.449219 168.804688 26.449219 C 168.804688 26.449219 169.203125 26.480469 169.714844 26.382812 C 170.234375 26.285156 170.863281 26.0625 171.335938 25.535156 " fill-opacity="1" fill-rule="nonzero"/><path fill="#eab90e" d="M 168.886719 20.476562 C 168.765625 19.246094 168.25 18.324219 167.765625 17.722656 C 167.285156 17.121094 166.832031 16.832031 166.832031 16.832031 C 166.832031 16.832031 166.515625 17.277344 166.265625 18.003906 C 166.019531 18.734375 165.84375 19.738281 166.144531 20.902344 C 166.289062 21.582031 166.707031 22.125 167.09375 22.5 C 167.480469 22.871094 167.832031 23.078125 167.832031 23.078125 C 167.832031 23.078125 168.117188 22.792969 168.390625 22.324219 C 168.667969 21.855469 168.933594 21.199219 168.886719 20.476562 " fill-opacity="1" fill-rule="nonzero"/><path fill="#eab90e" d="M 152.652344 61.667969 C 152.652344 61.667969 152.910156 61.777344 153.3125 62.011719 C 153.71875 62.246094 154.273438 62.605469 154.863281 63.109375 C 155.453125 63.617188 156.082031 64.269531 156.632812 65.105469 C 156.902344 65.519531 157.167969 65.988281 157.371094 66.492188 C 157.574219 66.996094 157.742188 67.550781 157.855469 68.15625 C 157.988281 68.863281 157.949219 69.574219 157.820312 70.238281 C 157.761719 70.574219 157.652344 70.882812 157.535156 71.179688 C 157.421875 71.476562 157.292969 71.753906 157.160156 72.011719 C 156.632812 73.039062 156.0625 73.699219 156.0625 73.699219 C 156.0625 73.699219 155.304688 73.347656 154.449219 72.644531 C 153.59375 71.941406 152.636719 70.886719 152.199219 69.550781 C 152.011719 68.980469 151.882812 68.433594 151.800781 67.914062 C 151.71875 67.394531 151.691406 66.910156 151.660156 66.429688 C 151.621094 65.476562 151.726562 64.644531 151.882812 63.949219 C 151.925781 63.777344 151.96875 63.613281 152.011719 63.457031 C 152.050781 63.296875 152.089844 63.144531 152.128906 63.003906 C 152.210938 62.722656 152.296875 62.480469 152.375 62.28125 C 152.527344 61.886719 152.652344 61.667969 152.652344 61.667969 " fill-opacity="1" fill-rule="nonzero"/><path fill="#eab90e" d="M 157.082031 61.527344 C 156.585938 60.539062 156.3125 59.605469 156.1875 58.753906 C 156.128906 58.335938 156.070312 57.917969 156.050781 57.535156 C 156.03125 57.148438 156.039062 56.785156 156.0625 56.457031 C 156.109375 55.792969 156.234375 55.257812 156.328125 54.871094 C 156.414062 54.484375 156.496094 54.265625 156.496094 54.265625 C 156.496094 54.265625 157.476562 54.527344 158.675781 55.300781 C 159.894531 56.078125 161.257812 57.347656 162.007812 59.488281 C 162.46875 60.753906 162.210938 62.066406 161.886719 63.066406 C 161.726562 63.566406 161.539062 63.988281 161.394531 64.285156 C 161.238281 64.574219 161.121094 64.738281 161.121094 64.738281 C 161.121094 64.738281 160.382812 64.523438 159.519531 64.007812 C 158.652344 63.492188 157.671875 62.6875 157.082031 61.527344 " fill-opacity="1" fill-rule="nonzero"/><path fill="#eab90e" d="M 160.546875 53.519531 C 160.019531 52.699219 159.628906 51.875 159.402344 51.117188 C 159.175781 50.355469 159.085938 49.652344 159.070312 49.046875 C 158.976562 47.824219 159.199219 46.996094 159.199219 46.996094 C 159.199219 46.996094 160.109375 47.125 161.261719 47.683594 C 161.835938 47.96875 162.476562 48.359375 163.085938 48.914062 C 163.695312 49.464844 164.304688 50.183594 164.730469 51.09375 C 165.238281 52.160156 165.222656 53.386719 165.050781 54.320312 C 164.851562 55.25 164.539062 55.902344 164.539062 55.902344 C 164.539062 55.902344 163.855469 55.800781 163.015625 55.445312 C 162.175781 55.09375 161.179688 54.484375 160.546875 53.519531 " fill-opacity="1" fill-rule="nonzero"/><path fill="#eab90e" d="M 162.824219 45.808594 C 162.234375 45.125 161.835938 44.429688 161.566406 43.769531 C 161.429688 43.441406 161.328125 43.117188 161.25 42.8125 C 161.171875 42.503906 161.097656 42.210938 161.050781 41.9375 C 160.863281 40.84375 160.988281 40.074219 160.988281 40.074219 C 160.988281 40.074219 161.808594 40.101562 162.886719 40.496094 C 163.960938 40.894531 165.292969 41.660156 166.304688 43.210938 C 166.863281 44.109375 166.941406 45.195312 166.890625 46.042969 C 166.863281 46.46875 166.804688 46.835938 166.75 47.097656 C 166.683594 47.355469 166.628906 47.507812 166.628906 47.507812 C 166.628906 47.507812 166.007812 47.488281 165.226562 47.265625 C 164.441406 47.039062 163.515625 46.609375 162.824219 45.808594 " fill-opacity="1" fill-rule="nonzero"/><path fill="#eab90e" d="M 164.152344 38.59375 C 163.582031 38.039062 163.171875 37.460938 162.878906 36.898438 C 162.585938 36.335938 162.417969 35.792969 162.277344 35.3125 C 162.019531 34.355469 162.066406 33.65625 162.066406 33.65625 C 162.066406 33.65625 162.789062 33.617188 163.765625 33.882812 C 164.742188 34.148438 165.972656 34.71875 166.992188 35.996094 C 167.550781 36.742188 167.714844 37.683594 167.742188 38.433594 C 167.769531 39.183594 167.65625 39.742188 167.65625 39.742188 C 167.65625 39.742188 167.109375 39.785156 166.40625 39.65625 C 165.699219 39.53125 164.824219 39.238281 164.152344 38.59375 " fill-opacity="1" fill-rule="nonzero"/><path fill="#eab90e" d="M 164.796875 32.007812 C 163.722656 31.132812 163.191406 30.105469 162.933594 29.285156 C 162.871094 29.078125 162.824219 28.886719 162.785156 28.714844 C 162.742188 28.542969 162.710938 28.390625 162.691406 28.261719 C 162.648438 28.003906 162.640625 27.851562 162.640625 27.851562 C 162.640625 27.851562 163.261719 27.769531 164.125 27.9375 C 164.988281 28.101562 166.113281 28.515625 167.03125 29.550781 C 167.574219 30.15625 167.792969 30.957031 167.875 31.601562 C 167.96875 32.246094 167.886719 32.734375 167.886719 32.734375 C 167.886719 32.734375 167.417969 32.8125 166.800781 32.757812 C 166.492188 32.730469 166.148438 32.671875 165.800781 32.554688 C 165.460938 32.4375 165.117188 32.261719 164.796875 32.007812 " fill-opacity="1" fill-rule="nonzero"/><path fill="#eab90e" d="M 164.933594 26.132812 C 164.464844 25.796875 164.109375 25.414062 163.839844 25.03125 C 163.550781 24.652344 163.347656 24.269531 163.207031 23.929688 C 162.921875 23.246094 162.882812 22.722656 162.882812 22.722656 C 162.882812 22.722656 163.402344 22.621094 164.132812 22.714844 C 164.867188 22.8125 165.816406 23.105469 166.679688 23.921875 C 166.929688 24.160156 167.125 24.445312 167.257812 24.738281 C 167.382812 25.03125 167.460938 25.332031 167.507812 25.601562 C 167.605469 26.140625 167.578125 26.554688 167.578125 26.554688 C 167.578125 26.554688 167.191406 26.652344 166.667969 26.644531 C 166.144531 26.636719 165.484375 26.527344 164.933594 26.132812 " fill-opacity="1" fill-rule="nonzero"/></svg>